# xmcd
#
# Track frame offsets:
# 150
# 12377
# 27455
# 39688
# 54037
# 64967
# 81825
# 95272
# 113463
# 130723
#
# Disc length: 1910 seconds
#
#
# Revision: 0
# Processed by: cddbd v1.5PL3 Copyright (c) Steve Scherf et al.
# Submitted via: FreeRIP 2.53 
#
DISCID=7607740a
DTITLE=Statler Brothers, The - Words and Music
DYEAR=1900
DGENRE=
TTITLE0=To Make A Long Story Short
TTITLE1=It Only Hurts For A Little While
TTITLE2=Lifetime Of Loving You In Vain
TTITLE3=Rest Of My Life
TTITLE4=Some I Wrote
TTITLE5=Nobody Loves Here Anymore
TTITLE6=Same Way Everytime
TTITLE7=Is It Your Place or Mine
TTITLE8=He's Always There For You
TTITLE9=Thank You For Breaking My Heart
EXTD=
EXTT0=
EXTT1=
EXTT2=
EXTT3=
EXTT4=
EXTT5=
EXTT6=
EXTT7=
EXTT8=
EXTT9=
PLAYORDER=
